<?xml version="1.0" encoding="UTF-8"?>
<svg width="24px" height="19px" viewBox="0 0 24 19" version="1.1" xmlns="http://www.w3.org/2000/svg" xmlns:xlink="http://www.w3.org/1999/xlink">
    <!-- Generator: Sketch 63.1 (92452) - https://sketch.com -->
    <title>envelopes</title>
    <desc>Created with Sketch.</desc>
    <g id="Home" stroke="none" stroke-width="1" fill="none" fill-rule="evenodd">
        <g id="Главная" transform="translate(-130.000000, -4326.000000)" fill="#FFFFFF" fill-rule="nonzero">
            <g id="contacts" transform="translate(130.000000, 3986.000000)">
                <g id="Group-15" transform="translate(0.000000, 311.000000)">
                    <g id="envelopes" transform="translate(0.000000, 29.000000)">
                        <path d="M21.890625,0 L2.109375,0 C1.78467187,0 1.4806875,0.079828125 1.20567187,0.21140625 L11.953125,10.9588594 L14.3619844,8.64384375 C14.3619844,8.64384375 14.3621719,8.64360938 14.3622187,8.64351562 C14.3622656,8.64342187 14.3624531,8.64332813 14.3624531,8.64332813 L22.7946562,0.21159375 C22.5195937,0.079921875 22.2154219,0 21.890625,0 Z" id="Path"></path>
                        <path d="M23.788875,1.206 L15.8537344,9.14071875 L23.7885937,17.0755781 C23.9201719,16.8005625 24,16.4965781 24,16.171875 L24,2.109375 C24,1.78485937 23.9203594,1.48092187 23.788875,1.206 Z" id="Path"></path>
                        <path d="M0.21140625,1.20567187 C0.079828125,1.4806875 0,1.78467187 0,2.109375 L0,16.171875 C0,16.4963906 0.079734375,16.8004219 0.21121875,17.0753437 L8.14635937,9.140625 L0.21140625,1.20567187 Z" id="Path"></path>
                        <path d="M14.8594688,10.1349844 L12.4502812,12.4502812 C12.3129375,12.587625 12.1330313,12.6562969 11.9531719,12.6562969 C11.7733125,12.6562969 11.5933594,12.587625 11.4560625,12.4502812 L9.140625,10.1348906 L1.20534375,18.0696563 C1.48040625,18.2013281 1.78457812,18.28125 2.109375,18.28125 L21.890625,18.28125 C22.2153281,18.28125 22.5193125,18.2014219 22.7943281,18.0698438 L14.8594688,10.1349844 Z" id="Path"></path>
                    </g>
                </g>
            </g>
        </g>
    </g>
</svg>