<?xml version="1.0" encoding="UTF-8"?>
<svg width="24px" height="24px" viewBox="0 0 24 24" version="1.1" xmlns="http://www.w3.org/2000/svg" xmlns:xlink="http://www.w3.org/1999/xlink">
    <!-- Generator: Sketch 63.1 (92452) - https://sketch.com -->
    <title>Path</title>
    <desc>Created with Sketch.</desc>
    <g id="Home" stroke="none" stroke-width="1" fill="none" fill-rule="evenodd">
        <g id="Главная" transform="translate(-130.000000, -4233.000000)" fill="#FFFFFF" fill-rule="nonzero">
            <g id="contacts" transform="translate(130.000000, 3986.000000)">
                <g id="Group-17" transform="translate(0.000000, 221.000000)">
                    <g id="communications" transform="translate(0.000000, 26.000000)">
                        <path d="M23.330428,17.6012451 L19.9835019,14.2543191 C18.7881712,13.0589883 16.7561089,13.5371673 16.2779767,15.0910506 C15.9193774,16.1668949 14.7240467,16.7645603 13.648249,16.5254475 C11.2575875,15.9277821 8.03019455,12.8199222 7.43252918,10.3097276 C7.07392996,9.23388327 7.7911284,8.03855253 8.86692607,7.68 C10.420856,7.2018677 10.8989883,5.16980545 9.70365759,3.97447471 L6.35673152,0.627548638 C5.40046693,-0.209182879 3.96607004,-0.209182879 3.12933852,0.627548638 L0.858210117,2.89867704 C-1.41291829,5.28933852 1.09727626,11.6245914 6.71533074,17.2426459 C12.3333852,22.8607004 18.6686381,25.4904747 21.0592996,23.0997665 L23.330428,20.8286381 C24.1672062,19.8723735 24.1672062,18.4379767 23.330428,17.6012451 Z" id="Path"></path>
                    </g>
                </g>
            </g>
        </g>
    </g>
</svg>