<?xml version="1.0" encoding="UTF-8"?>
<svg width="24px" height="33px" viewBox="0 0 24 33" version="1.1" xmlns="http://www.w3.org/2000/svg" xmlns:xlink="http://www.w3.org/1999/xlink">
    <!-- Generator: Sketch 63.1 (92452) - https://sketch.com -->
    <title>Shape</title>
    <desc>Created with Sketch.</desc>
    <g id="Home" stroke="none" stroke-width="1" fill="none" fill-rule="evenodd">
        <g id="Главная" transform="translate(-130.000000, -4136.000000)" fill="#FFFFFF" fill-rule="nonzero">
            <g id="contacts" transform="translate(130.000000, 3986.000000)">
                <g id="Group-18" transform="translate(0.000000, 131.000000)">
                    <g id="seo-and-web" transform="translate(0.000000, 19.000000)">
                        <path d="M12,0 C5.40354839,0 0.0369677419,5.36658065 0.0369677419,11.9629677 C0.0369677419,20.1492903 10.7427097,32.1672903 11.1985161,32.6749032 C11.6266452,33.1517419 12.374129,33.1509032 12.8014839,32.6749032 C13.2572903,32.1672903 23.9630323,20.1492903 23.9630323,11.9629677 C23.9630323,5.36658065 18.5963871,0 12,0 Z M12,17.981871 C8.68116129,17.981871 5.98116129,15.2818065 5.98116129,11.9629677 C5.98116129,8.64412903 8.68122581,5.94412903 12,5.94412903 C15.3187742,5.94412903 18.0187742,8.64419355 18.0187742,11.9630323 C18.0187742,15.281871 15.3187742,17.981871 12,17.981871 Z" id="Shape"></path>
                    </g>
                </g>
            </g>
        </g>
    </g>
</svg>