<?xml version="1.0" encoding="UTF-8"?>
<svg width="24px" height="24px" viewBox="0 0 24 24" version="1.1" xmlns="http://www.w3.org/2000/svg" xmlns:xlink="http://www.w3.org/1999/xlink">
    <!-- Generator: Sketch 63.1 (92452) - https://sketch.com -->
    <title>watch</title>
    <desc>Created with Sketch.</desc>
    <g id="Home" stroke="none" stroke-width="1" fill="none" fill-rule="evenodd">
        <g id="Главная" transform="translate(-130.000000, -4411.000000)" fill="#FFFFFF" fill-rule="nonzero">
            <g id="contacts" transform="translate(130.000000, 3986.000000)">
                <g id="Group-16" transform="translate(0.000000, 401.000000)">
                    <g id="watch" transform="translate(0.000000, 24.000000)">
                        <path d="M12,4.21875 C7.70939062,4.21875 4.21875,7.70939062 4.21875,12 C4.21875,16.2906094 7.70939062,19.78125 12,19.78125 C16.2906094,19.78125 19.78125,16.2906094 19.78125,12 C19.78125,7.70939062 16.2906094,4.21875 12,4.21875 Z M11.296875,5.625 L12.703125,5.625 L12.703125,7.03125 L11.296875,7.03125 L11.296875,5.625 Z M7.03125,12.703125 L5.625,12.703125 L5.625,11.296875 L7.03125,11.296875 L7.03125,12.703125 Z M12.703125,18.375 L11.296875,18.375 L11.296875,16.96875 L12.703125,16.96875 L12.703125,18.375 Z M12.9943594,13.9887188 L12,12.9943594 L11.0056406,13.9887188 L10.0112813,12.9943594 L11.0056406,12 L7.01160938,8.00596875 L8.00596875,7.01160937 L12,11.0056406 L16.0106719,6.99496875 L17.0050313,7.98932812 L12.9943594,12 L13.9887188,12.9943594 L12.9943594,13.9887188 Z M16.96875,12.703125 L16.96875,11.296875 L18.375,11.296875 L18.375,12.703125 L16.96875,12.703125 Z" id="Shape"></path>
                        <path d="M12,0 C5.37257813,0 0,5.37257812 0,12 C0,18.6274219 5.37257812,24 12,24 C18.6274219,24 24,18.6274219 24,12 C24,5.37257813 18.6274219,0 12,0 Z M12,21.1875 C6.93398438,21.1875 2.8125,17.0660156 2.8125,12 C2.8125,6.93398438 6.93398438,2.8125 12,2.8125 C17.0660156,2.8125 21.1875,6.93398438 21.1875,12 C21.1875,17.0660156 17.0660156,21.1875 12,21.1875 Z" id="Shape"></path>
                    </g>
                </g>
            </g>
        </g>
    </g>
</svg>