<?xml version="1.0" encoding="UTF-8"?>
<svg width="32px" height="58px" viewBox="0 0 32 58" version="1.1" xmlns="http://www.w3.org/2000/svg" xmlns:xlink="http://www.w3.org/1999/xlink">
    <!-- Generator: Sketch 63.1 (92452) - https://sketch.com -->
    <title>shapes-and-symbols</title>
    <desc>Created with Sketch.</desc>
    <g id="Home" stroke="none" stroke-width="1" fill="none" fill-rule="evenodd" opacity="0.100000001">
        <g id="Главная" transform="translate(-130.000000, -1087.000000)" fill="#FFFFFF" fill-rule="nonzero">
            <g id="about" transform="translate(130.000000, 786.000000)">
                <g id="Group-20" transform="translate(0.000000, 301.000000)">
                    <g id="shapes-and-symbols">
                        <path d="M27.1290323,0 L4.67741935,0 C2.09535412,0.0028999325 0.0028999325,2.09535412 0,4.67741935 L0,53.3225806 C0.0028999325,55.9046459 2.09535412,57.9971001 4.67741935,58 L27.1290323,58 C29.7110975,57.9971001 31.8035517,55.9046459 31.8064516,53.3225806 L31.8064516,4.67741935 C31.8035517,2.09535412 29.7110975,0.0028999325 27.1290323,0 L27.1290323,0 Z M22.2460403,1.87096774 L21.68475,4.67741935 L10.1218185,4.67741935 L9.56052823,1.87096774 L22.2460403,1.87096774 Z M29.9354839,53.3225806 C29.9337439,54.8718198 28.6782714,56.1272923 27.1290323,56.1290323 L4.67741935,56.1290323 C3.12818022,56.1272923 1.8727077,54.8718198 1.87096774,53.3225806 L1.87096774,4.67741935 C1.8727077,3.12818022 3.12818022,1.8727077 4.67741935,1.87096774 L7.652375,1.87096774 L8.43747984,5.796375 C8.52493991,6.23365479 8.90889827,6.54840765 9.35483871,6.5483871 L22.4516129,6.5483871 C22.8975533,6.54840765 23.2815117,6.23365479 23.3689718,5.796375 L24.1540766,1.87096774 L27.1290323,1.87096774 C28.6782714,1.8727077 29.9337439,3.12818022 29.9354839,4.67741935 L29.9354839,53.3225806 Z" id="Shape"></path>
                        <path d="M10.2903226,52.3870968 L4.67741935,52.3870968 C4.16076588,52.3870968 3.74193548,52.8059272 3.74193548,53.3225806 C3.74193548,53.8392341 4.16076588,54.2580645 4.67741935,54.2580645 L10.2903226,54.2580645 C10.8069761,54.2580645 11.2258065,53.8392341 11.2258065,53.3225806 C11.2258065,52.8059272 10.8069761,52.3870968 10.2903226,52.3870968 Z" id="Path"></path>
                        <path d="M14.0322581,52.3870968 L13.0967742,52.3870968 C12.5801207,52.3870968 12.1612903,52.8059272 12.1612903,53.3225806 C12.1612903,53.8392341 12.5801207,54.2580645 13.0967742,54.2580645 L14.0322581,54.2580645 C14.5489115,54.2580645 14.9677419,53.8392341 14.9677419,53.3225806 C14.9677419,52.8059272 14.5489115,52.3870968 14.0322581,52.3870968 Z" id="Path"></path>
                    </g>
                </g>
            </g>
        </g>
    </g>
</svg>