<?xml version="1.0" encoding="UTF-8"?>
<svg width="58px" height="56px" viewBox="0 0 58 56" version="1.1" xmlns="http://www.w3.org/2000/svg" xmlns:xlink="http://www.w3.org/1999/xlink">
    <!-- Generator: Sketch 63.1 (92452) - https://sketch.com -->
    <title>tools-and-utensils</title>
    <desc>Created with Sketch.</desc>
    <g id="Home" stroke="none" stroke-width="1" fill="none" fill-rule="evenodd" opacity="0.100000001">
        <g id="Главная" transform="translate(-934.000000, -1088.000000)" fill="#FFFFFF" fill-rule="nonzero">
            <g id="about" transform="translate(130.000000, 786.000000)">
                <g id="Group-7" transform="translate(804.000000, 302.000000)">
                    <g id="tools-and-utensils">
                        <path d="M57.8872835,30.5458351 C57.3665296,25.3079368 55.0264789,20.3698939 51.2979399,16.6412417 C48.111565,13.4549801 44.2115183,11.4074215 40.1077918,10.4969802 L40.1077918,7.61873025 C41.7839011,7.20174198 43.0297683,5.68456624 43.0297683,3.88124208 C43.0297683,1.75744526 41.3020027,0.0296796866 39.1782059,0.0296796866 L31.0219561,0.0296796866 C28.8981593,0.0296796866 27.1703937,1.75744526 27.1703937,3.88124208 C27.1703937,5.68445296 28.4162609,7.2016287 30.0922569,7.61873025 L30.0922569,10.5050231 C26.0011047,11.4193161 22.113972,13.4640426 18.9366596,16.641355 C18.2413393,17.3366753 17.6001675,18.0660932 17.0132573,18.8241713 C16.9848237,18.822019 16.9563901,18.8198666 16.9273901,18.8198666 L8.85485521,18.8198666 C8.22931617,18.8198666 7.72204275,19.3270268 7.72204275,19.9526791 C7.72204275,20.5783314 8.22931617,21.0854916 8.85485521,21.0854916 L15.4718394,21.0854916 C14.6412613,22.4760189 13.9715426,23.9363274 13.461777,25.4395696 L1.13281247,25.4395696 C0.507273423,25.4395696 0,25.9467297 0,26.572382 C0,27.1980344 0.507273423,27.7051945 1.13281247,27.7051945 L12.8216246,27.7051945 C12.4951481,29.1383156 12.3077809,30.5968116 12.2594098,32.0593858 L7.24999979,32.0593858 C6.62446075,32.0593858 6.11718732,32.5665459 6.11718732,33.1921983 C6.11718732,33.8178506 6.62446075,34.3250107 7.24999979,34.3250107 L12.2955465,34.3250107 C12.3911559,35.7913232 12.6268942,37.2499325 13.0028746,38.679202 L5.66406234,38.679202 C5.03852329,38.679202 4.53124987,39.1863622 4.53124987,39.8120145 C4.53124987,40.4376668 5.03852329,40.9448269 5.66406234,40.9448269 L13.7258355,40.9448269 C14.8371246,43.8845886 16.5738394,46.6399283 18.9366596,49.0027486 C22.6688236,52.7349125 27.611964,55.0755297 32.8552998,55.5935648 C33.6036358,55.6674242 34.3525381,55.704014 35.1004209,55.704014 C39.5208817,55.704014 43.885155,54.4247289 47.5883189,52.0131977 C48.1125846,51.671768 48.2608697,50.9699907 47.91944,50.4457251 C47.5780103,49.9214595 46.876233,49.7731743 46.3519674,50.114604 C38.2459012,55.3931703 27.3898195,54.2518617 20.538683,47.4007252 C12.5000192,39.3620614 12.5000192,26.2822688 20.538683,18.2434917 C28.5772336,10.2049411 41.6570261,10.2049411 49.6958033,18.2434917 C56.5378773,25.085679 57.6854163,35.9324716 52.4242954,44.034573 C52.0835454,44.5592917 52.2327368,45.2609557 52.7573422,45.6015924 C53.2822875,45.9423424 53.983725,45.793151 54.3243617,45.2684323 C57.1353226,40.9393894 58.4006741,35.7108935 57.8872835,30.5458351 Z M29.4360187,3.88135536 C29.4360187,3.00682413 30.1474249,2.2954179 31.0219561,2.2954179 L39.1782059,2.2954179 C40.0527371,2.2954179 40.7641434,3.00682413 40.7641434,3.88135536 C40.7641434,4.75588658 40.0527371,5.46729281 39.1782059,5.46729281 L38.9749793,5.46729281 L31.2250694,5.46729281 L31.0219561,5.46729281 C30.1474249,5.46729281 29.4360187,4.7557733 29.4360187,3.88135536 Z M32.3578819,10.1155622 L32.3578819,7.73291775 L37.8421669,7.73291775 L37.8421669,10.1114841 C36.0210576,9.89489034 34.1786514,9.89624972 32.3578819,10.1155622 Z" id="XMLID_389_"></path>
                        <path d="M50.4973814,47.068358 C50.1983189,47.068358 49.9071861,47.189569 49.6965962,47.4002721 C49.4847603,47.6109752 49.3645689,47.9032408 49.3645689,48.2011705 C49.3645689,48.4991002 49.4847603,48.7913658 49.6965962,49.0020689 C49.9071861,49.2139048 50.1984321,49.333983 50.4973814,49.333983 C50.795311,49.333983 51.0864438,49.2139048 51.2982798,49.0020689 C51.5089829,48.7913658 51.6301938,48.4991002 51.6301938,48.2011705 C51.6301938,47.9032408 51.5090962,47.6109752 51.2982798,47.4002721 C51.0864438,47.189569 50.7951978,47.068358 50.4973814,47.068358 Z" id="XMLID_391_"></path>
                        <path d="M35.1172998,15.2486753 C25.4274485,15.2486753 17.5440932,23.1319173 17.5440932,32.8218819 C17.5440932,42.5118464 25.4274485,50.3950884 35.1172998,50.3950884 C44.8071511,50.3950884 52.6905063,42.5118464 52.6905063,32.8218819 C52.6905063,23.1319173 44.8071511,15.2486753 35.1172998,15.2486753 Z M35.1172998,48.1294635 C26.6766008,48.1294635 19.8097182,41.2624676 19.8097182,32.8218819 C19.8097182,24.3812962 26.6766008,17.5143003 35.1172998,17.5143003 C43.5579987,17.5143003 50.4248814,24.3812962 50.4248814,32.8218819 C50.4248814,41.2624676 43.5579987,48.1294635 35.1172998,48.1294635 Z" id="XMLID_394_"></path>
                        <path d="M42.2830183,24.0541399 L36.6721982,29.6648468 C36.2029872,29.4328468 35.6752099,29.3017804 35.1172998,29.3017804 C34.5592763,29.3017804 34.0316123,29.4328468 33.5624014,29.6648468 L31.051296,27.1537414 C30.6088194,26.7113781 29.8917491,26.7113781 29.4491593,27.1537414 C29.006796,27.5961047 29.006796,28.3134015 29.4491593,28.7557648 L31.9602647,31.2668702 C31.7281514,31.7360811 31.5971983,32.2638584 31.5971983,32.8217686 C31.5971983,34.7627295 33.1762256,36.34187 35.1172998,36.34187 C37.0583739,36.34187 38.6374012,34.7627295 38.6374012,32.8217686 C38.6374012,32.2638584 38.5063348,31.7360811 38.2743348,31.2668702 L43.7204441,25.820761 L43.7204441,25.820761 L43.8850417,25.6561633 C44.327405,25.2138001 44.327405,24.4965032 43.8850417,24.0541399 C43.4426784,23.6117767 42.7256081,23.6117767 42.2830183,24.0541399 Z M35.1172998,34.0763584 C34.4256045,34.0763584 33.8628232,33.5135772 33.8628232,32.8218819 C33.8628232,32.1301866 34.4256045,31.5674053 35.1172998,31.5674053 C35.8089951,31.5674053 36.3717763,32.1301866 36.3717763,32.8218819 C36.3717763,33.5135772 35.8089951,34.0763584 35.1172998,34.0763584 Z" id="XMLID_397_"></path>
                        <path d="M47.2292174,31.7028897 L46.1796666,31.7028897 C45.5541276,31.7028897 45.0468542,32.2100499 45.0468542,32.8357022 C45.0468542,33.4613545 45.5541276,33.9685146 46.1796666,33.9685146 L47.2292174,33.9685146 C47.8547564,33.9685146 48.3620299,33.4613545 48.3620299,32.8357022 C48.3620299,32.2100499 47.8547564,31.7028897 47.2292174,31.7028897 Z" id="XMLID_398_"></path>
                        <path d="M24.0548196,31.6752491 L23.0053822,31.6752491 C22.3798431,31.6752491 21.8725697,32.1824092 21.8725697,32.8080616 C21.8725697,33.4337139 22.3798431,33.940874 23.0053822,33.940874 L24.0548196,33.940874 C24.6803587,33.940874 25.1876321,33.4337139 25.1876321,32.8080616 C25.1876321,32.1824092 24.6803587,31.6752491 24.0548196,31.6752491 Z" id="XMLID_399_"></path>
                        <path d="M35.1311201,22.8922142 C35.7566591,22.8922142 36.2639326,22.385054 36.2639326,21.7594017 L36.2639326,20.7099642 C36.2639326,20.0843119 35.7566591,19.5771518 35.1311201,19.5771518 C34.505581,19.5771518 33.9983076,20.0843119 33.9983076,20.7099642 L33.9983076,21.7594017 C33.9983076,22.385054 34.505581,22.8922142 35.1311201,22.8922142 Z" id="XMLID_400_"></path>
                        <path d="M35.1034795,42.7515496 C34.4779404,42.7515496 33.970667,43.2587097 33.970667,43.884362 L33.970667,44.9337995 C33.970667,45.5594518 34.4779404,46.066612 35.1034795,46.066612 C35.7290185,46.066612 36.2362919,45.5594518 36.2362919,44.9337995 L36.2362919,43.884362 C36.2362919,43.2587097 35.7290185,42.7515496 35.1034795,42.7515496 Z" id="XMLID_424_"></path>
                        <path d="M1.13281247,38.6787489 C0.834882788,38.6787489 0.542617172,38.7999598 0.331914053,39.0106629 C0.121210934,39.2213661 0,39.5136317 0,39.8115614 C0,40.1106238 0.121097653,40.4017566 0.331914053,40.6124598 C0.542730453,40.8231629 0.834882788,40.9443738 1.13281247,40.9443738 C1.43074215,40.9443738 1.72300776,40.8231629 1.9335976,40.6124598 C2.14430072,40.4017566 2.26562493,40.109491 2.26562493,39.8115614 C2.26562493,39.5136317 2.144414,39.2213661 1.9335976,39.0106629 C1.72300776,38.7999598 1.43074215,38.6787489 1.13281247,38.6787489 Z" id="XMLID_425_"></path>
                    </g>
                </g>
            </g>
        </g>
    </g>
</svg>